# xmcd CD database file
#
# Track frame offsets:
#	150
#	20983
#	40320
#	60180
#	76186
#	98140
#	125361
#	155432
#	179719
#	196266
#	216722
#	236654
#	266490
#
# Disc length: 3855 seconds
#
# Revision: 0
# Processed by: cddbd v1.5.1PL2 Copyright (c) Steve Scherf et al.
# Submitted via: CDex 1.60beta1-cs1
#
DISCID=b60f0d0d
DTITLE=Dean Everson and Singh Kaur - Imagine Peace
DYEAR=2004
DGENRE=New Age
TTITLE0=Imagine
TTITLE1=Secret Garden
TTITLE2=Lightdance
TTITLE3=Every
TTITLE4=Reflection
TTITLE5=Instruments of Peace
TTITLE6=Common Call
TTITLE7=Wave
TTITLE8=Nightingale
TTITLE9=Voyager
TTITLE10=Say Yea
TTITLE11=Peace Of Mind
TTITLE12=Universe
EXTD=YEAR: 2004
EXTT0=
EXTT1=
EXTT2=
EXTT3=
EXTT4=
EXTT5=
EXTT6=
EXTT7=
EXTT8=
EXTT9=
EXTT10=
EXTT11=
EXTT12=
PLAYORDER=
